<svg xmlns="http://www.w3.org/2000/svg" xml:space="preserve" style="fill-rule:evenodd;clip-rule:evenodd;stroke-linejoin:round;stroke-miterlimit:2" viewBox="0 0 440 201"><path d="M60 99h450.8v221.9H60z" style="fill:none" transform="matrix(.97664 0 0 .90604 -58.598 -89.698)"/><path d="M245.7 162.5C209.9 265.9 26 218.1 67.1 97.1 82.5 52.2 177.6 11.3 222 32.7c31 14.3 39.1 92 23.7 129.8ZM92.2 103.9v.2c-1.5 0-2.3.9-2.6 2.6v47.1c0 1.4.9 2.3 2.6 2.6h.3c1.3 0 2.2-.9 2.6-2.6l-.1-.8v-19.6h16l2.8.1c1.5-.7 2.2-1.6 2.2-2.8-.4-1.9-1.3-2.8-2.5-2.8l-2 .1H94.9v-18.6h25.4c1.6 0 2.6-.8 3-2.5-.3-2-1.2-3-2.8-3l-.5.1H92.9l-.7-.1Zm42.3.3c-1.4 0-2.1 1-2.4 3.1v29.6c0 4.4 1 8.1 2.9 11.1 4.2 5.6 9.2 8.4 14.9 8.4h.9c3.4 0 6.8-1.1 10.1-3.3 5.3-4.1 7.9-8.8 7.9-14.3v-32.1c0-1.4-.8-2.2-2.5-2.5h-.4c-1.4 0-2.2.9-2.5 2.6v30.6c0 1.9-.2 3.7-.8 5.4-2.7 5.5-6.7 8.3-12.1 8.3-2.8 0-5.3-.9-7.6-2.6-3.6-2.2-5.4-6.4-5.4-12.7v-29.4c0-1.1-.8-1.9-2.5-2.2h-.5Zm48 .1c-1.3 0-2.1 1-2.3 3.1v46.2c.3 1.8 1.2 2.7 2.6 2.7h.1c1.7-.3 2.6-1.1 2.6-2.5V115l28.6 36.5c2.2 3.2 3.8 4.8 4.8 4.8 1.9-.3 2.9-1.2 2.9-2.7v-46.8c-.3-1.7-1.1-2.6-2.5-2.6h-.4c-1.4 0-2.2.8-2.5 2.5v39.1h-.1l-.1-.1c0-.3-.1-.4-.3-.4-18.6-24-28.5-36.8-29.9-38.3-.8-1.8-1.8-2.7-3-2.7h-.5Z" style="fill:#fff" transform="matrix(1 0 0 1 -60.532 -25.849)"/><path d="M260.3 214.7c-12.3 15.7-34.6-2.4-20.5-15.7 14.2-13.2 33.7.9 20.5 15.7M288.2 102.5h16.1v3h-12.6v9.6h10.7v3h-10.7v12.7h-3.5v-28.3ZM324.7 130.9l-6.7-12h-5.1v12h-3.5v-28.4h8.8c1.4 0 2.7.1 3.9.4 1.2.3 2.2.7 3.1 1.4.9.6 1.5 1.5 2 2.5s.7 2.2.7 3.7c0 2.2-.6 4-1.7 5.3-1.1 1.3-2.7 2.2-4.6 2.7l7.1 12.4h-4Zm-11.8-15h4.7c2.2 0 3.9-.5 5-1.4 1.2-.9 1.8-2.3 1.8-4.1 0-1.9-.6-3.2-1.8-3.9-1.2-.7-2.8-1.1-5-1.1h-4.7v10.5ZM346.5 122.2h-10.2l-2.7 8.6H330l9.5-28.4h4l9.5 28.4h-3.8l-2.7-8.6Zm-.9-2.9-1.3-4.3c-.5-1.6-1-3.2-1.5-4.7-.5-1.6-.9-3.2-1.4-4.8h-.2c-.4 1.6-.9 3.2-1.3 4.8-.5 1.6-.9 3.1-1.5 4.7l-1.3 4.3h8.5ZM356.8 102.5h3.8l10.1 17.8 3 5.9h.2c-.1-1.4-.2-2.9-.3-4.5-.1-1.5-.2-3.1-.2-4.6v-14.7h3.4v28.4h-3.7L363 113l-3-5.8h-.2c.1 1.4.2 2.9.3 4.4.1 1.5.1 3 .1 4.5v14.8h-3.4v-28.4ZM382.9 116.7c0-2.3.3-4.3.9-6.1.6-1.8 1.5-3.4 2.6-4.6 1.1-1.3 2.4-2.2 3.9-2.9 1.5-.7 3.2-1 5-1 1.7 0 3.2.4 4.5 1.1 1.3.7 2.3 1.5 3.2 2.4l-2 2.3c-.7-.8-1.6-1.4-2.5-1.9-.9-.5-1.9-.7-3.1-.7-1.3 0-2.5.3-3.6.8s-2 1.3-2.8 2.3c-.8 1-1.4 2.2-1.8 3.6-.4 1.4-.6 3-.6 4.8 0 1.8.2 3.4.6 4.8.4 1.4 1 2.6 1.7 3.7.7 1 1.6 1.8 2.7 2.3 1.1.5 2.3.8 3.6.8 1.4 0 2.6-.3 3.6-.8s2-1.3 2.9-2.3l2 2.2c-1.1 1.3-2.4 2.3-3.8 3-1.4.7-3 1.1-4.8 1.1-1.8 0-3.4-.3-4.9-1-1.5-.7-2.8-1.6-3.9-2.9-1.1-1.3-1.9-2.8-2.6-4.6-.7-1.8-.8-4.1-.8-6.4ZM408.8 102.5H425v3h-12.6v8.9H423v3.1h-10.6v10.3h13v3.1h-16.6v-28.4ZM288.4 145.8h2v17.3c0 1.9.2 3.5.6 4.7.4 1.3 1 2.3 1.6 3 .7.8 1.5 1.3 2.4 1.6.9.3 1.8.5 2.8.5 1 0 2-.2 2.9-.5.9-.3 1.7-.9 2.4-1.6.7-.8 1.3-1.8 1.7-3 .4-1.3.6-2.8.6-4.7v-17.3h1.8v17.6c0 2.2-.3 4.1-.8 5.5-.5 1.4-1.3 2.6-2.1 3.5-.9.9-1.9 1.5-3 1.9-1.1.4-2.3.5-3.5.5-1.2 0-2.4-.2-3.5-.5s-2.1-1-3-1.9c-.9-.9-1.6-2.1-2.1-3.5-.5-1.5-.8-3.3-.8-5.5v-17.6ZM315.6 145.8h2l11.9 20.1 3.2 5.7h.2c-.1-1.4-.1-2.8-.2-4.2-.1-1.4-.1-2.8-.1-4.2v-17.5h1.9v28.5h-2l-11.9-20.1-3.2-5.7h-.2c.1 1.4.1 2.7.2 4 .1 1.3.1 2.7.1 4v17.7h-1.9v-28.3ZM342.7 145.8h2v28.5h-2zM349 145.8h2.1l5.2 16.6c.5 1.7 1 3.3 1.5 4.8.4 1.5.9 3 1.5 4.8h.2c.3-.9.5-1.7.8-2.5.3-.8.5-1.5.7-2.3.2-.8.5-1.5.7-2.3.2-.8.5-1.6.7-2.5l5.2-16.6h2l-9.2 28.5h-2.1l-9.3-28.5ZM373.9 145.8h15.4v1.7h-13.4v10.8h11.3v1.7h-11.3v12.5h13.9v1.7H374v-28.4h-.1ZM411.5 174.3l-7.6-13.1h-6v13.1h-2v-28.5h8.1c1.4 0 2.7.1 3.8.4 1.1.3 2.1.7 2.9 1.3.8.6 1.4 1.4 1.9 2.3.5.9.7 2.1.7 3.5 0 2.3-.6 4.1-1.9 5.4-1.3 1.3-3.1 2.1-5.3 2.4l7.8 13.2h-2.4Zm-8-14.7c2.5 0 4.4-.5 5.7-1.5 1.3-1 2-2.6 2-4.7s-.7-3.6-2-4.5c-1.3-.9-3.2-1.3-5.7-1.3h-5.6v12.1h5.6v-.1ZM418.3 169.2c1 1.2 2.2 2.1 3.7 2.8 1.4.7 2.9 1 4.6 1 2.2 0 3.9-.5 5.1-1.6 1.3-1.1 1.9-2.4 1.9-4.1 0-.9-.1-1.6-.4-2.2-.3-.6-.6-1.1-1.1-1.6-.5-.4-1-.8-1.6-1.2-.6-.4-1.3-.7-1.9-1l-4.3-1.9c-.6-.3-1.3-.6-1.9-1-.7-.4-1.3-.8-1.8-1.4-.6-.6-1-1.2-1.4-2-.4-.8-.6-1.7-.6-2.7 0-1 .2-2 .6-2.8.4-.8 1-1.6 1.7-2.2.7-.6 1.6-1.1 2.6-1.4 1-.3 2.1-.5 3.3-.5 1.7 0 3.2.3 4.5 1 1.3.7 2.4 1.5 3.3 2.4l-1.1 1.3c-.8-.9-1.8-1.6-2.9-2.1-1.1-.5-2.4-.8-3.8-.8-1.9 0-3.4.5-4.5 1.4-1.1.9-1.7 2.2-1.7 3.7 0 .8.2 1.5.5 2.1.3.6.7 1.1 1.2 1.5.5.4 1 .8 1.6 1.1.6.3 1.1.6 1.6.8l4.3 1.9c.8.3 1.6.7 2.3 1.2.7.4 1.3.9 1.9 1.5.5.6 1 1.3 1.3 2.1.3.8.5 1.7.5 2.8 0 1.1-.2 2.1-.6 3-.4.9-1 1.7-1.8 2.4s-1.7 1.2-2.8 1.6c-1.1.4-2.3.6-3.7.6-2 0-3.9-.4-5.5-1.2-1.6-.8-2.9-1.8-4.1-3.1l1-1.4ZM441.5 145.8h2v28.5h-2zM457.8 147.6h-9v-1.7h19.9v1.7h-9v26.8h-2v-26.8h.1ZM474.1 145.8h15.4v1.7h-13.4v10.8h11.3v1.7h-11.3v12.5H490v1.7h-15.8v-28.4h-.1Zm8-2.1h-1.7l3.9-4.6h2.5l-4.7 4.6ZM288.5 190.7h2l11.9 20.1 3.2 5.7h.2c-.1-1.4-.1-2.8-.2-4.2-.1-1.4-.1-2.8-.1-4.2v-17.5h1.9v28.5h-2L293.5 199l-3.2-5.7h-.2c.1 1.4.1 2.7.2 4 .1 1.3.1 2.7.1 4V219h-1.9v-28.3ZM315.6 190.7h2V208c0 1.9.2 3.5.6 4.7.4 1.3 1 2.3 1.6 3 .7.8 1.5 1.3 2.4 1.6.9.3 1.8.5 2.8.5 1 0 2-.2 2.9-.5.9-.3 1.7-.9 2.4-1.6.7-.8 1.3-1.8 1.7-3 .4-1.3.6-2.8.6-4.7v-17.3h1.8v17.6c0 2.2-.3 4.1-.8 5.5-.5 1.4-1.3 2.6-2.1 3.5-.9.9-1.9 1.5-3 1.9-1.1.4-2.3.5-3.5.5-1.2 0-2.4-.2-3.5-.5s-2.1-1-3-1.9c-.9-.9-1.6-2.1-2.1-3.5-.5-1.5-.8-3.3-.8-5.5v-17.6ZM342.7 190.7h2.8l5.9 16.7 2.2 6.3h.2l2.1-6.3 5.9-16.7h2.8v28.5h-1.9v-18.7c0-1.2 0-2.5.1-3.8.1-1.4.1-2.7.2-3.9h-.2l-2.2 6.3-6 17h-1.8l-6.1-17-2.2-6.3h-.2c.1 1.2.1 2.5.2 3.9s.1 2.6.1 3.8v18.7h-1.8v-28.5h-.1ZM372.9 190.7h15.4v1.7h-13.4v10.8h11.3v1.7h-11.3v12.5h13.9v1.7H373v-28.4h-.1Zm8-2.2h-1.7l3.9-4.6h2.5l-4.7 4.6ZM410.4 219.2l-7.6-13.1h-6v13.1h-2v-28.5h8.1c1.4 0 2.7.1 3.8.4 1.1.3 2.1.7 2.9 1.3.8.6 1.4 1.4 1.9 2.3.5.9.7 2.1.7 3.5 0 2.3-.6 4.1-1.9 5.4-1.3 1.3-3.1 2.1-5.3 2.4l7.8 13.2h-2.4Zm-8-14.8c2.5 0 4.4-.5 5.7-1.5 1.3-1 2-2.6 2-4.7s-.7-3.6-2-4.5c-1.3-.9-3.2-1.3-5.7-1.3h-5.6v12.1h5.6v-.1ZM418.8 190.7h2v28.5h-2zM450.5 225.4c-.4.1-.9.2-1.5.3-.6.1-1.3.2-2 .2-2.4 0-4.3-.6-5.9-1.8-1.6-1.2-2.7-2.7-3.4-4.5-1.5-.1-2.9-.6-4.2-1.4-1.3-.8-2.4-1.8-3.3-3.1-.9-1.3-1.6-2.8-2.2-4.6-.5-1.8-.8-3.7-.8-5.8 0-2.2.3-4.3.9-6.1.6-1.8 1.4-3.3 2.4-4.6 1-1.3 2.2-2.3 3.7-2.9 1.4-.7 3-1 4.7-1 1.7 0 3.3.3 4.7 1 1.4.7 2.6 1.7 3.7 2.9 1 1.3 1.8 2.8 2.4 4.6.6 1.8.9 3.8.9 6.1 0 2.1-.3 4.1-.8 5.8-.5 1.8-1.2 3.3-2.2 4.6-.9 1.3-2 2.3-3.3 3.1-1.3.8-2.7 1.2-4.3 1.4.7 1.4 1.6 2.5 2.8 3.3 1.2.7 2.7 1.1 4.5 1.1.7 0 1.2 0 1.6-.1l1.2-.3.4 1.8Zm-21.2-20.6c0 2 .2 3.8.7 5.4.5 1.6 1.1 3 1.9 4.2.8 1.2 1.8 2 3 2.7 1.2.7 2.5 1 3.9 1s2.7-.3 3.9-1c1.2-.7 2.2-1.5 3-2.7.8-1.1 1.5-2.5 1.9-4.2.5-1.6.7-3.4.7-5.4 0-2-.2-3.7-.7-5.3-.5-1.6-1.1-2.9-1.9-4-.8-1.1-1.8-2-3-2.6-1.2-.6-2.5-.9-3.9-.9s-2.7.3-3.9.9c-1.2.6-2.2 1.5-3 2.6-.8 1.1-1.5 2.5-1.9 4-.5 1.6-.7 3.4-.7 5.3ZM456.8 190.7h2V208c0 1.9.2 3.5.6 4.7.4 1.3 1 2.3 1.6 3 .6.7 1.5 1.3 2.4 1.6.9.3 1.8.5 2.8.5 1 0 2-.2 2.9-.5.9-.3 1.7-.9 2.4-1.6.7-.8 1.3-1.8 1.7-3 .4-1.3.6-2.8.6-4.7v-17.3h1.8v17.6c0 2.2-.3 4.1-.8 5.5-.5 1.5-1.3 2.6-2.1 3.5-.9.9-1.9 1.5-3 1.9-1.1.4-2.3.5-3.5.5-1.2 0-2.4-.2-3.5-.5-1.1-.4-2.1-1-3-1.9-.9-.9-1.6-2.1-2.1-3.5s-.8-3.3-.8-5.5v-17.6ZM483.9 190.7h15.4v1.7h-13.4v10.8h11.3v1.7h-11.3v12.5h13.9v1.7H484v-28.4h-.1Z" style="fill:#fff;fill-rule:nonzero" transform="matrix(1 0 0 1 -60.532 -25.849)"/></svg>
