<?xml version="1.0" encoding="utf-8"?>
<!-- Generator: Adobe Illustrator 25.4.1, SVG Export Plug-In . SVG Version: 6.00 Build 0)  -->
<svg version="1.1" id="Calque_1" xmlns="http://www.w3.org/2000/svg" xmlns:xlink="http://www.w3.org/1999/xlink" x="0px" y="0px"
	 viewBox="0 0 573 327" style="enable-background:new 0 0 573 327;" xml:space="preserve">
<style type="text/css">
	.st0{fill:#0A51A1;}
	.st1{fill:#FFFFFF;stroke:#FFFFFF;stroke-width:0.5;stroke-miterlimit:10;}
	.st2{fill:#FF0001;}
	.st3{fill:#010203;}
</style>
<g>
	<path class="st0" d="M245.7,162.5C209.9,265.9,26,218.1,67.1,97.1C82.5,52.2,177.6,11.3,222,32.7C253,47,261.1,124.7,245.7,162.5"
		/>
</g>
<g>
	<path class="st1" d="M92.2,103.9l0.7,0.1H120l0.5-0.1c1.6,0,2.5,1,2.8,3c-0.4,1.7-1.4,2.5-3,2.5H94.9v18.6h16.6l2-0.1
		c1.2,0,2.1,0.9,2.5,2.8c0,1.2-0.7,2.1-2.2,2.8l-2.8-0.1h-16V153l0.1,0.8c-0.4,1.7-1.3,2.6-2.6,2.6h-0.3c-1.7-0.3-2.6-1.2-2.6-2.6
		v-47.1c0.3-1.7,1.1-2.6,2.6-2.6V103.9z"/>
	<path class="st1" d="M134.5,104.2h0.5c1.7,0.3,2.5,1.1,2.5,2.2v29.4c0,6.3,1.8,10.5,5.4,12.7c2.3,1.7,4.8,2.6,7.6,2.6
		c5.4,0,9.4-2.8,12.1-8.3c0.6-1.7,0.8-3.5,0.8-5.4v-30.6c0.3-1.7,1.1-2.6,2.5-2.6h0.4c1.7,0.3,2.5,1.1,2.5,2.5v32.1
		c0,5.5-2.6,10.2-7.9,14.3c-3.3,2.2-6.7,3.3-10.1,3.3h-0.9c-5.7,0-10.7-2.8-14.9-8.4c-1.9-3-2.9-6.7-2.9-11.1v-29.6
		C132.4,105.2,133.1,104.2,134.5,104.2z"/>
	<path class="st1" d="M182.5,104.3h0.5c1.2,0,2.2,0.9,3,2.7c1.4,1.5,11.3,14.3,29.9,38.3c0.2,0,0.3,0.1,0.3,0.4l0.1,0.1h0.1v-39.1
		c0.3-1.7,1.1-2.5,2.5-2.5h0.4c1.4,0,2.2,0.9,2.5,2.6v46.8c0,1.5-1,2.4-2.9,2.7c-1,0-2.6-1.6-4.8-4.8L185.5,115v38.8
		c0,1.4-0.9,2.2-2.6,2.5h-0.1c-1.4,0-2.3-0.9-2.6-2.7v-46.2C180.4,105.3,181.2,104.3,182.5,104.3z"/>
</g>
<g>
	<path class="st2" d="M260.3,214.7c-12.3,15.7-34.6-2.4-20.5-15.7C254,185.8,273.5,199.9,260.3,214.7"/>
</g>
<g>
	<path class="st3" d="M288.2,102.5h16.1v3.1h-12.6v9.6h10.7v3.1h-10.7v12.7h-3.6V102.5z"/>
	<path class="st3" d="M309.4,102.5h8.8c5.7,0,9.8,2.1,9.8,8c0,4.4-2.5,7-6.3,8l7.1,12.4h-4.1l-6.7-12h-5v12h-3.6V102.5z
		 M317.6,115.9c4.4,0,6.7-1.8,6.7-5.4c0-3.7-2.4-5.1-6.7-5.1h-4.7v10.5H317.6z"/>
	<path class="st3" d="M339.2,102.5h4.1l9.4,28.4H349l-2.6-8.6h-10.2l-2.7,8.6h-3.6L339.2,102.5z M337.1,119.3h8.4l-1.3-4.3
		c-1-3.2-1.9-6.3-2.8-9.6h-0.2c-0.9,3.3-1.8,6.4-2.7,9.6L337.1,119.3z"/>
	<path class="st3" d="M356.7,102.5h3.8l10,17.7c1.1,1.9,2,4,3,6.1h0.2c-0.2-2.9-0.5-6.1-0.5-9v-14.8h3.4v28.4h-3.8l-10-17.7
		c-1.1-1.9-2.1-4-3-6.1h-0.2c0.2,2.9,0.5,5.9,0.5,8.9v14.9h-3.4V102.5z"/>
	<path class="st3" d="M382.7,116.7c0-9.1,5.3-14.7,12.4-14.7c3.4,0,6.1,1.6,7.7,3.5l-2,2.2c-1.5-1.6-3.3-2.6-5.7-2.6
		c-5.3,0-8.8,4.4-8.8,11.4c0,7.1,3.3,11.6,8.6,11.6c2.7,0,4.7-1.1,6.5-3.1l2,2.2c-2.3,2.6-5,4.1-8.6,4.1
		C387.9,131.4,382.7,125.9,382.7,116.7z"/>
	<path class="st3" d="M408.7,102.5h16.1v3.1h-12.6v8.9h10.6v3.1h-10.6v10.3h13v3.1h-16.6V102.5z"/>
</g>
<g>
	<path class="st3" d="M288.5,163.5v-17.6h1.8v17.4c0,7.7,3.5,9.9,7.6,9.9c4.1,0,7.7-2.3,7.7-9.9v-17.4h1.8v17.6
		c0,8.9-4.7,11.4-9.5,11.4S288.5,172.3,288.5,163.5z"/>
	<path class="st3" d="M315.6,145.8h2l12,20.2c1.1,1.9,2.2,3.8,3.2,5.8h0.2c-0.1-2.8-0.2-5.5-0.2-8.3v-17.7h1.7v28.5h-1.9l-12-20.2
		c-1.1-1.9-2.2-3.9-3.2-5.8h-0.2c0.1,2.7,0.2,5.3,0.2,8v18h-1.7V145.8z"/>
	<path class="st3" d="M342.7,145.8h1.8v28.5h-1.8V145.8z"/>
	<path class="st3" d="M348.9,145.8h1.9l5.1,16.7c1.1,3.5,1.8,6.1,3,9.6h0.2c1.2-3.5,1.9-6.1,3-9.6l5.4-16.7h1.8l-9.4,28.5h-1.9
		L348.9,145.8z"/>
	<path class="st3" d="M373.8,145.8h15.3v1.6h-13.5v10.9h11.3v1.6h-11.3v12.8h13.9v1.6h-15.8V145.8z"/>
	<path class="st3" d="M395.7,145.8h8c5.6,0,9.2,2.1,9.2,7.5c0,4.5-2.8,7.2-7.3,7.7l7.9,13.3h-2.1l-7.7-13.2h-6v13.2h-1.8V145.8z
		 M403.2,159.6c5,0,7.8-2,7.8-6.3c0-4.3-2.8-5.9-7.8-5.9h-5.6v12.2H403.2z"/>
	<path class="st3" d="M416,170.5l1.2-1.3c2,2.4,5,3.9,8.3,3.9c4.4,0,7.1-2.4,7.1-5.8c0-3.6-2.3-4.8-5.1-6l-4.3-1.9
		c-2.4-1.1-5.7-2.9-5.7-7.1c0-4.1,3.5-7,8.1-7c3.4,0,6.1,1.6,7.8,3.4l-1.1,1.3c-1.7-1.8-3.9-2.9-6.7-2.9c-3.8,0-6.3,2-6.3,5.2
		c0,3.4,2.8,4.6,4.9,5.5l4.3,1.9c3.1,1.4,5.9,3.2,5.9,7.5s-3.5,7.7-9,7.7C421.4,174.8,418.2,173.1,416,170.5z"/>
	<path class="st3" d="M440.4,145.8h1.8v28.5h-1.8V145.8z"/>
	<path class="st3" d="M456.7,147.4h-9v-1.6h19.8v1.6h-9v26.9h-1.8V147.4z"/>
	<path class="st3" d="M472.9,145.8h15.3v1.6h-13.5v10.9h11.3v1.6h-11.3v12.8h13.9v1.6h-15.8V145.8z M478.1,142.9l6.7-5.3l1,1.3
		l-6.9,4.9L478.1,142.9z"/>
</g>
<g>
	<path class="st3" d="M288.6,190.7h2l12,20.2c1.1,1.9,2.2,3.8,3.2,5.8h0.2c-0.1-2.8-0.2-5.5-0.2-8.3v-17.7h1.7v28.5h-1.9l-12-20.2
		c-1.1-1.9-2.2-3.9-3.2-5.8h-0.2c0.1,2.7,0.2,5.3,0.2,8v18h-1.7V190.7z"/>
	<path class="st3" d="M315.6,208.3v-17.6h1.8v17.4c0,7.7,3.5,9.9,7.6,9.9c4.1,0,7.7-2.3,7.7-9.9v-17.4h1.8v17.6
		c0,8.9-4.7,11.4-9.5,11.4C320.2,219.7,315.6,217.2,315.6,208.3z"/>
	<path class="st3" d="M342.7,190.7h2.7l5.9,16.9c0.7,2.1,1.5,4.2,2.2,6.4h0.2c0.7-2.2,1.4-4.2,2.1-6.4l5.9-16.9h2.7v28.5h-1.8v-19
		c0-2.3,0.2-5.3,0.3-7.7h-0.2l-2.2,6.4l-6.1,17.2h-1.7l-6.1-17.2l-2.2-6.4h-0.2c0.1,2.4,0.3,5.4,0.3,7.7v19h-1.7V190.7z"/>
	<path class="st3" d="M372.8,190.7h15.3v1.6h-13.5v10.9h11.3v1.6h-11.3v12.8h13.9v1.6h-15.8V190.7z M377.9,187.7l6.7-5.3l1,1.3
		l-6.9,4.9L377.9,187.7z"/>
	<path class="st3" d="M394.7,190.7h8c5.6,0,9.2,2.1,9.2,7.5c0,4.5-2.8,7.2-7.3,7.7l7.9,13.3h-2.1l-7.7-13.2h-6v13.2h-1.8V190.7z
		 M402.2,204.4c5,0,7.8-2,7.8-6.3c0-4.3-2.8-5.9-7.8-5.9h-5.6v12.2H402.2z"/>
	<path class="st3" d="M417.8,190.7h1.8v28.5h-1.8V190.7z"/>
	<path class="st3" d="M436.7,219.6c-6.2-0.6-10.5-6.3-10.5-14.8c0-9,4.8-14.7,11.6-14.7s11.5,5.7,11.5,14.7
		c0,8.6-4.3,14.3-10.5,14.8c1.3,2.9,3.8,4.5,7.3,4.5c1.3,0,2.2-0.2,2.9-0.3l0.4,1.5c-0.7,0.3-2,0.6-3.4,0.6
		C441.2,225.9,438,223.2,436.7,219.6z M447.3,204.8c0-8-3.8-13-9.6-13s-9.6,5-9.6,13c0,8,3.9,13.3,9.6,13.3S447.3,212.8,447.3,204.8
		z"/>
	<path class="st3" d="M455.7,208.3v-17.6h1.8v17.4c0,7.7,3.5,9.9,7.6,9.9c4.1,0,7.7-2.3,7.7-9.9v-17.4h1.8v17.6
		c0,8.9-4.7,11.4-9.5,11.4S455.7,217.2,455.7,208.3z"/>
	<path class="st3" d="M482.8,190.7h15.3v1.6h-13.5v10.9H496v1.6h-11.3v12.8h13.9v1.6h-15.8V190.7z"/>
</g>
<g>
	<path class="st1" d="M92.2,103.9l0.7,0.1H120l0.5-0.1c1.6,0,2.5,1,2.8,3c-0.4,1.7-1.4,2.5-3,2.5H94.9v18.6h16.6l2-0.1
		c1.2,0,2.1,0.9,2.5,2.8c0,1.2-0.7,2.1-2.2,2.8l-2.8-0.1h-16V153l0.1,0.8c-0.4,1.7-1.3,2.6-2.6,2.6h-0.3c-1.7-0.3-2.6-1.2-2.6-2.6
		v-47.1c0.3-1.7,1.1-2.6,2.6-2.6V103.9z"/>
	<path class="st1" d="M134.5,104.2h0.5c1.7,0.3,2.5,1.1,2.5,2.2v29.4c0,6.3,1.8,10.5,5.4,12.7c2.3,1.7,4.8,2.6,7.6,2.6
		c5.4,0,9.4-2.8,12.1-8.3c0.6-1.7,0.8-3.5,0.8-5.4v-30.6c0.3-1.7,1.1-2.6,2.5-2.6h0.4c1.7,0.3,2.5,1.1,2.5,2.5v32.1
		c0,5.5-2.6,10.2-7.9,14.3c-3.3,2.2-6.7,3.3-10.1,3.3h-0.9c-5.7,0-10.7-2.8-14.9-8.4c-1.9-3-2.9-6.7-2.9-11.1v-29.6
		C132.4,105.2,133.1,104.2,134.5,104.2z"/>
	<path class="st1" d="M182.5,104.3h0.5c1.2,0,2.2,0.9,3,2.7c1.4,1.5,11.3,14.3,29.9,38.3c0.2,0,0.3,0.1,0.3,0.4l0.1,0.1h0.1v-39.1
		c0.3-1.7,1.1-2.5,2.5-2.5h0.4c1.4,0,2.2,0.9,2.5,2.6v46.8c0,1.5-1,2.4-2.9,2.7c-1,0-2.6-1.6-4.8-4.8L185.5,115v38.8
		c0,1.4-0.9,2.2-2.6,2.5h-0.1c-1.4,0-2.3-0.9-2.6-2.7v-46.2C180.4,105.3,181.2,104.3,182.5,104.3z"/>
</g>
<g>
	<path class="st0" d="M87.5,253.3h-9.2v25.5h-7v-25.5H62v-6.5h25.5V253.3z"/>
	<path class="st0" d="M111.7,278.7h-6.8v-13c0-1.5-0.3-2.6-0.9-3.3c-0.6-0.7-1.4-1.1-2.3-1.1c-0.5,0-1.1,0.2-1.7,0.5
		c-0.6,0.3-1.2,0.8-1.8,1.4c-0.5,0.6-1,1.3-1.2,2.1v13.3h-6.8v-32.8h6.8v13.5c0.8-1.4,1.9-2.5,3.3-3.2c1.4-0.8,2.8-1.1,4.5-1.1
		c1.5,0,2.8,0.3,3.7,0.8c0.9,0.5,1.6,1.2,2.1,2.1c0.5,0.9,0.8,1.8,1,2.9s0.3,2.1,0.3,3.1V278.7z"/>
	<path class="st0" d="M126.6,279.2c-1.9,0-3.6-0.3-5.1-1c-1.5-0.6-2.7-1.5-3.8-2.6c-1-1.1-1.8-2.4-2.4-3.8s-0.8-2.9-0.8-4.5
		c0-2.2,0.5-4.3,1.4-6.1c1-1.8,2.3-3.3,4.1-4.5c1.8-1.1,4-1.7,6.5-1.7c2.5,0,4.7,0.6,6.5,1.7c1.8,1.1,3.1,2.6,4.1,4.4
		c0.9,1.8,1.4,3.8,1.4,5.9c0,0.4,0,0.8-0.1,1.2c0,0.4-0.1,0.7-0.1,1h-16.6c0.1,1,0.4,1.9,0.8,2.6c0.5,0.7,1.1,1.2,1.8,1.6
		c0.7,0.4,1.5,0.5,2.4,0.5c1,0,2-0.3,2.9-0.8c0.9-0.5,1.5-1.2,1.9-2.1l5.8,1.7c-0.6,1.2-1.4,2.3-2.4,3.3c-1,0.9-2.3,1.7-3.7,2.2
		S128.3,279.2,126.6,279.2z M121.6,264.9h9.7c-0.1-0.9-0.4-1.8-0.8-2.5c-0.4-0.7-1-1.2-1.7-1.6c-0.7-0.4-1.5-0.6-2.4-0.6
		c-0.9,0-1.7,0.2-2.4,0.6s-1.3,0.9-1.7,1.6C122,263.1,121.8,263.9,121.6,264.9z"/>
	<path class="st0" d="M152.4,278.7v-16.2h-2.9V257h2.9v-1.9c0-2,0.3-3.7,1-5.1c0.6-1.4,1.6-2.6,2.7-3.4c1.2-0.8,2.6-1.2,4.1-1.2
		c1,0,1.9,0.1,2.9,0.4c1,0.2,2,0.6,2.9,1l-1.2,5.4c-0.4-0.2-0.9-0.4-1.5-0.5c-0.6-0.1-1.1-0.2-1.6-0.2c-0.8,0-1.5,0.3-1.9,0.8
		c-0.4,0.6-0.6,1.4-0.6,2.5v2.2h5.2v5.4h-5.2v16.2H152.4z"/>
	<path class="st0" d="M181.3,261.3c-1.7,0-3.1,0.3-4.5,0.8c-1.3,0.6-2.3,1.4-2.9,2.5v14.2h-6.8v-23.4h6.3v4.5c0.8-1.6,1.8-2.8,3-3.7
		c1.2-0.9,2.5-1.4,3.8-1.4c0.3,0,0.5,0,0.7,0c0.2,0,0.3,0,0.4,0V261.3z"/>
	<path class="st0" d="M194.4,279.2c-1.9,0-3.6-0.3-5.1-1c-1.5-0.6-2.7-1.5-3.8-2.6c-1-1.1-1.8-2.4-2.4-3.8s-0.8-2.9-0.8-4.5
		c0-2.2,0.5-4.3,1.4-6.1c1-1.8,2.3-3.3,4.1-4.5c1.8-1.1,4-1.7,6.5-1.7c2.5,0,4.7,0.6,6.5,1.7c1.8,1.1,3.1,2.6,4.1,4.4
		c0.9,1.8,1.4,3.8,1.4,5.9c0,0.4,0,0.8-0.1,1.2c0,0.4-0.1,0.7-0.1,1h-16.6c0.1,1,0.4,1.9,0.8,2.6c0.5,0.7,1.1,1.2,1.8,1.6
		c0.7,0.4,1.5,0.5,2.4,0.5c1,0,2-0.3,2.9-0.8c0.9-0.5,1.5-1.2,1.9-2.1l5.8,1.7c-0.6,1.2-1.4,2.3-2.4,3.3c-1,0.9-2.3,1.7-3.7,2.2
		S196.1,279.2,194.4,279.2z M189.4,264.9h9.7c-0.1-0.9-0.4-1.8-0.8-2.5c-0.4-0.7-1-1.2-1.7-1.6c-0.7-0.4-1.5-0.6-2.4-0.6
		c-0.9,0-1.7,0.2-2.4,0.6s-1.3,0.9-1.7,1.6C189.8,263.1,189.6,263.9,189.4,264.9z"/>
	<path class="st0" d="M219.9,279.2c-1.9,0-3.6-0.3-5.1-1c-1.5-0.6-2.7-1.5-3.8-2.6c-1-1.1-1.8-2.4-2.4-3.8s-0.8-2.9-0.8-4.5
		c0-2.2,0.5-4.3,1.4-6.1c1-1.8,2.3-3.3,4.1-4.5c1.8-1.1,4-1.7,6.5-1.7c2.5,0,4.7,0.6,6.5,1.7c1.8,1.1,3.1,2.6,4.1,4.4
		c0.9,1.8,1.4,3.8,1.4,5.9c0,0.4,0,0.8-0.1,1.2c0,0.4-0.1,0.7-0.1,1h-16.6c0.1,1,0.4,1.9,0.8,2.6c0.5,0.7,1.1,1.2,1.8,1.6
		c0.7,0.4,1.5,0.5,2.4,0.5c1,0,2-0.3,2.9-0.8c0.9-0.5,1.5-1.2,1.9-2.1l5.8,1.7c-0.6,1.2-1.4,2.3-2.4,3.3c-1,0.9-2.3,1.7-3.7,2.2
		S221.6,279.2,219.9,279.2z M214.9,264.9h9.7c-0.1-0.9-0.4-1.8-0.8-2.5c-0.4-0.7-1-1.2-1.7-1.6c-0.7-0.4-1.5-0.6-2.4-0.6
		c-0.9,0-1.7,0.2-2.4,0.6s-1.3,0.9-1.7,1.6C215.3,263.1,215,263.9,214.9,264.9z"/>
	<path class="st0" d="M233.4,267.1c0-2.3,0.4-4.3,1.3-6.1c0.9-1.8,2-3.3,3.5-4.3c1.5-1.1,3.2-1.6,5.1-1.6c1.6,0,3,0.4,4.3,1.2
		s2.3,1.8,2.9,3.1v-13.5h6.8v24.8c0,0.7,0.1,1.2,0.3,1.5c0.2,0.3,0.6,0.5,1.1,0.5v6c-1.2,0.2-2.2,0.4-2.9,0.4
		c-1.2,0-2.1-0.3-2.8-0.8c-0.7-0.5-1.2-1.3-1.3-2.2l-0.1-1.2c-0.8,1.5-1.9,2.6-3.2,3.3s-2.8,1.1-4.3,1.1c-1.5,0-3-0.3-4.3-0.9
		c-1.3-0.6-2.4-1.5-3.4-2.5c-1-1.1-1.7-2.4-2.2-3.9C233.6,270.4,233.4,268.8,233.4,267.1z M250.5,269.9v-4.8
		c-0.3-0.8-0.7-1.5-1.2-2.1s-1.1-1-1.8-1.4s-1.3-0.5-2-0.5c-0.7,0-1.4,0.2-2,0.5c-0.6,0.3-1.1,0.8-1.6,1.3c-0.5,0.6-0.8,1.2-1,1.9
		c-0.2,0.7-0.4,1.5-0.4,2.3c0,0.8,0.1,1.6,0.4,2.3c0.3,0.7,0.6,1.3,1.1,1.9c0.5,0.5,1.1,1,1.7,1.2s1.4,0.4,2.1,0.4
		c0.5,0,1-0.1,1.4-0.2c0.5-0.2,0.9-0.4,1.3-0.6c0.4-0.3,0.8-0.6,1.1-1C250,270.8,250.3,270.4,250.5,269.9z"/>
	<path class="st0" d="M272.9,279.2c-1.9,0-3.6-0.3-5.1-1c-1.5-0.7-2.8-1.5-3.8-2.7c-1-1.1-1.8-2.4-2.3-3.9s-0.8-3-0.8-4.6
		c0-1.6,0.3-3.2,0.8-4.6s1.3-2.7,2.3-3.9c1-1.1,2.3-2,3.8-2.7c1.5-0.7,3.2-1,5.1-1c1.9,0,3.6,0.3,5.1,1c1.5,0.7,2.7,1.5,3.8,2.7
		c1,1.1,1.8,2.4,2.4,3.9c0.5,1.4,0.8,3,0.8,4.6c0,1.6-0.3,3.1-0.8,4.6c-0.5,1.4-1.3,2.7-2.4,3.9c-1,1.1-2.3,2-3.8,2.7
		C276.5,278.9,274.8,279.2,272.9,279.2z M267.9,267.1c0,1.2,0.2,2.2,0.7,3.1c0.4,0.9,1,1.6,1.8,2.1s1.6,0.7,2.6,0.7
		c0.9,0,1.8-0.3,2.5-0.8s1.3-1.2,1.8-2.1c0.4-0.9,0.6-1.9,0.6-3.1c0-1.2-0.2-2.2-0.6-3.1c-0.4-0.9-1-1.6-1.8-2.1s-1.6-0.7-2.5-0.7
		c-1,0-1.8,0.2-2.6,0.7s-1.3,1.2-1.8,2.1C268.2,264.9,267.9,265.9,267.9,267.1z"/>
	<path class="st0" d="M323.5,278.7h-6.8v-13c0-1.5-0.3-2.6-0.8-3.3c-0.5-0.7-1.2-1.1-2.1-1.1c-0.9,0-1.8,0.4-2.7,1.1
		c-0.9,0.8-1.5,1.7-1.9,3v13.3h-6.8v-13c0-1.5-0.3-2.6-0.8-3.3c-0.5-0.7-1.2-1-2.1-1c-0.9,0-1.8,0.4-2.7,1.1
		c-0.9,0.8-1.5,1.7-1.9,2.9v13.3H288v-23.4h6.2v4c0.8-1.4,1.9-2.5,3.4-3.2c1.4-0.8,3.1-1.1,4.9-1.1c1.9,0,3.3,0.5,4.3,1.4
		c1,0.9,1.6,2,1.9,3.2c0.9-1.4,2-2.6,3.4-3.3c1.4-0.8,3-1.2,4.8-1.2c1.4,0,2.6,0.3,3.5,0.8c0.9,0.5,1.6,1.3,2,2.1
		c0.5,0.9,0.8,1.8,0.9,2.9s0.3,2,0.3,3V278.7z"/>
	<path class="st0" d="M351.8,277.5c-0.6,0.3-1.3,0.5-2.1,0.8c-0.8,0.3-1.5,0.5-2.4,0.7c-0.8,0.2-1.6,0.2-2.4,0.2
		c-1.1,0-2.2-0.2-3.1-0.6c-1-0.4-1.7-1.1-2.3-2c-0.6-0.9-0.8-2.1-0.8-3.6v-12.2h-2.9v-5.4h2.9v-7.5h6.8v7.5h4.6v5.4h-4.6v9.6
		c0,0.8,0.2,1.3,0.6,1.6c0.4,0.3,0.8,0.5,1.4,0.5c0.5,0,1-0.1,1.6-0.3c0.6-0.2,1-0.4,1.4-0.6L351.8,277.5z"/>
	<path class="st0" d="M364.5,279.2c-1.9,0-3.6-0.3-5.1-1c-1.5-0.7-2.8-1.5-3.8-2.7c-1-1.1-1.8-2.4-2.3-3.9s-0.8-3-0.8-4.6
		c0-1.6,0.3-3.2,0.8-4.6s1.3-2.7,2.3-3.9c1-1.1,2.3-2,3.8-2.7c1.5-0.7,3.2-1,5.1-1c1.9,0,3.6,0.3,5.1,1c1.5,0.7,2.7,1.5,3.8,2.7
		c1,1.1,1.8,2.4,2.4,3.9c0.5,1.4,0.8,3,0.8,4.6c0,1.6-0.3,3.1-0.8,4.6c-0.5,1.4-1.3,2.7-2.4,3.9c-1,1.1-2.3,2-3.8,2.7
		C368.1,278.9,366.4,279.2,364.5,279.2z M359.5,267.1c0,1.2,0.2,2.2,0.7,3.1c0.4,0.9,1,1.6,1.8,2.1s1.6,0.7,2.6,0.7
		c0.9,0,1.8-0.3,2.5-0.8s1.3-1.2,1.8-2.1c0.4-0.9,0.6-1.9,0.6-3.1c0-1.2-0.2-2.2-0.6-3.1c-0.4-0.9-1-1.6-1.8-2.1s-1.6-0.7-2.5-0.7
		c-1,0-1.8,0.2-2.6,0.7s-1.3,1.2-1.8,2.1C359.7,264.9,359.5,265.9,359.5,267.1z"/>
	<path class="st0" d="M397.8,279.2c-1.9,0-3.8-0.3-5.6-1c-1.8-0.7-3.4-1.6-4.6-2.9l2.4-4.5c1.4,1,2.7,1.8,4,2.4s2.5,0.8,3.7,0.8
		c0.9,0,1.6-0.1,2.1-0.4c0.5-0.3,0.7-0.7,0.7-1.3c0-0.4-0.1-0.8-0.4-1s-0.7-0.5-1.3-0.7c-0.6-0.2-1.3-0.4-2.2-0.7
		c-1.7-0.6-3.1-1.2-4.3-1.7c-1.1-0.6-2-1.2-2.6-2.1c-0.6-0.8-0.9-1.9-0.9-3.2c0-1.6,0.4-2.9,1.1-4.1c0.8-1.2,1.8-2.1,3.2-2.7
		s3.1-1,5-1c1.5,0,3,0.3,4.5,0.8c1.5,0.5,2.8,1.4,4.1,2.6l-2.7,4.5c-1.3-0.9-2.4-1.6-3.4-2c-1-0.4-2-0.6-2.9-0.6
		c-0.5,0-0.9,0.1-1.3,0.2c-0.4,0.1-0.7,0.3-1,0.6c-0.2,0.3-0.4,0.6-0.4,1.1c0,0.4,0.1,0.8,0.4,1.1c0.2,0.3,0.6,0.5,1.2,0.7
		c0.5,0.2,1.2,0.4,2,0.7c1.9,0.6,3.4,1.1,4.6,1.7c1.2,0.6,2.1,1.3,2.8,2.1c0.6,0.8,0.9,2,0.9,3.3c0,2.4-0.8,4.2-2.5,5.5
		C402.8,278.5,400.6,279.2,397.8,279.2z"/>
	<path class="st0" d="M424.4,277.5c-0.6,0.3-1.3,0.5-2.1,0.8c-0.8,0.3-1.5,0.5-2.4,0.7c-0.8,0.2-1.6,0.2-2.4,0.2
		c-1.1,0-2.2-0.2-3.1-0.6c-1-0.4-1.7-1.1-2.3-2c-0.6-0.9-0.8-2.1-0.8-3.6v-12.2h-2.9v-5.4h2.9v-7.5h6.8v7.5h4.6v5.4h-4.6v9.6
		c0,0.8,0.2,1.3,0.6,1.6c0.4,0.3,0.8,0.5,1.4,0.5c0.5,0,1-0.1,1.6-0.3c0.6-0.2,1-0.4,1.4-0.6L424.4,277.5z"/>
	<path class="st0" d="M426.5,270.3v-15h6.8v13.3c0,1.4,0.3,2.5,0.8,3.3c0.5,0.8,1.3,1.1,2.3,1.1c0.6,0,1.2-0.1,1.8-0.3
		s1.1-0.6,1.7-1.1c0.5-0.5,1-1.1,1.5-1.9v-14.4h6.8v15.4c0,0.7,0.1,1.2,0.3,1.5s0.6,0.5,1.1,0.5v6c-0.6,0.1-1.2,0.2-1.6,0.3
		c-0.5,0.1-0.9,0.1-1.3,0.1c-1.2,0-2.2-0.3-2.9-0.8c-0.7-0.5-1.2-1.3-1.3-2.2l-0.1-1.4c-1,1.5-2.3,2.7-3.8,3.4
		c-1.5,0.7-3.2,1.1-5.1,1.1c-2.3,0-4-0.8-5.2-2.3C427.1,275.4,426.5,273.2,426.5,270.3z"/>
	<path class="st0" d="M451.9,267.1c0-2.3,0.4-4.3,1.3-6.1c0.9-1.8,2-3.3,3.5-4.3c1.5-1.1,3.2-1.6,5.1-1.6c1.6,0,3,0.4,4.3,1.2
		s2.3,1.8,2.9,3.1v-13.5h6.8v24.8c0,0.7,0.1,1.2,0.3,1.5c0.2,0.3,0.6,0.5,1.1,0.5v6c-1.2,0.2-2.2,0.4-2.9,0.4
		c-1.2,0-2.1-0.3-2.8-0.8c-0.7-0.5-1.2-1.3-1.3-2.2l-0.1-1.2c-0.8,1.5-1.9,2.6-3.2,3.3s-2.8,1.1-4.3,1.1c-1.5,0-3-0.3-4.3-0.9
		c-1.3-0.6-2.4-1.5-3.4-2.5c-1-1.1-1.7-2.4-2.2-3.9C452.2,270.4,451.9,268.8,451.9,267.1z M469.1,269.9v-4.8
		c-0.3-0.8-0.7-1.5-1.2-2.1s-1.1-1-1.8-1.4s-1.3-0.5-2-0.5c-0.7,0-1.4,0.2-2,0.5c-0.6,0.3-1.1,0.8-1.6,1.3c-0.5,0.6-0.8,1.2-1,1.9
		c-0.2,0.7-0.4,1.5-0.4,2.3c0,0.8,0.1,1.6,0.4,2.3c0.3,0.7,0.6,1.3,1.1,1.9c0.5,0.5,1.1,1,1.7,1.2s1.4,0.4,2.1,0.4
		c0.5,0,1-0.1,1.4-0.2c0.5-0.2,0.9-0.4,1.3-0.6c0.4-0.3,0.8-0.6,1.1-1C468.6,270.8,468.8,270.4,469.1,269.9z"/>
	<path class="st0" d="M480.8,282.3c0.6,0.2,1.1,0.3,1.6,0.4c0.5,0.1,0.9,0.2,1.3,0.2c0.5,0,1-0.1,1.4-0.4c0.4-0.3,0.7-0.7,1-1.3
		c0.3-0.6,0.5-1.4,0.8-2.4l-8.5-23.4h7.1l5.2,16.1l4.4-16.1h6.5l-8.5,27.2c-0.4,1.3-1,2.4-1.8,3.4c-0.8,1-1.8,1.7-3,2.3
		s-2.5,0.8-3.8,0.8c-0.6,0-1.2-0.1-1.8-0.2c-0.6-0.1-1.2-0.3-1.8-0.5V282.3z"/>
</g>
</svg>
