<svg xmlns="http://www.w3.org/2000/svg" xml:space="preserve" style="fill-rule:evenodd;clip-rule:evenodd;stroke-linejoin:round;stroke-miterlimit:2" viewBox="0 0 1250 555"><path d="M0 0h1250v554.167H0z" style="fill:#fff"/><path d="M572.652 182.215h42.568l10.521 179.81h-41.348l-4.403-73.392-24.954 73.392h-41.341l-26.425-76.329-4.89 76.329h-41.589l11.5-179.81h42.564l39.388 112.532 38.409-112.532m143.113 138.221c6.687 0 12.969-1.263 18.842-3.793 5.868-2.527 11.005-5.994 15.409-10.396 4.403-4.403 7.867-9.542 10.395-15.412 2.529-5.871 3.794-12.148 3.794-18.836 0-6.687-1.265-12.968-3.794-18.838-2.528-5.873-5.992-11.009-10.395-15.414-4.404-4.402-9.541-7.866-15.409-10.396-5.873-2.526-12.155-3.791-18.842-3.791-6.688 0-12.96 1.265-18.833 3.791-5.872 2.53-11.01 5.994-15.413 10.396-4.404 4.405-7.872 9.541-10.396 15.414-2.534 5.87-3.794 12.151-3.794 18.838 0 6.688 1.26 12.965 3.794 18.836 2.524 5.87 5.992 11.009 10.396 15.412 4.403 4.402 9.541 7.869 15.413 10.396 5.873 2.53 12.145 3.793 18.833 3.793Zm-.12-138.221c12.38 0 24.02 2.364 34.93 7.095 10.916 4.732 20.447 11.13 28.589 19.203 8.142 8.073 14.574 17.577 19.297 28.502 4.728 10.929 7.087 22.591 7.087 34.984s-2.359 24.056-7.087 34.984c-4.723 10.927-11.155 20.425-19.297 28.498-8.142 8.073-17.673 14.476-28.589 19.205-10.91 4.732-22.55 7.095-34.93 7.095-12.38 0-24.026-2.363-34.936-7.095-10.916-4.729-20.402-11.132-28.469-19.205-8.056-8.073-14.449-17.571-19.172-28.498-4.728-10.928-7.082-22.591-7.082-34.984s2.354-24.055 7.082-34.984c4.723-10.925 11.116-20.429 19.172-28.502 8.067-8.073 17.553-14.471 28.469-19.203 10.91-4.731 22.556-7.095 34.936-7.095M899.24 320.436c6.687 0 12.97-1.263 18.842-3.793 5.868-2.527 11.006-5.994 15.409-10.396 4.403-4.403 7.867-9.542 10.396-15.412 2.529-5.871 3.793-12.148 3.793-18.836 0-6.687-1.264-12.968-3.793-18.838-2.529-5.873-5.993-11.009-10.396-15.414-4.403-4.402-9.541-7.866-15.409-10.396-5.872-2.526-12.155-3.791-18.842-3.791-6.687 0-12.96 1.265-18.832 3.791-5.873 2.53-11.011 5.994-15.414 10.396-4.403 4.405-7.872 9.541-10.396 15.414-2.534 5.87-3.793 12.151-3.793 18.838 0 6.688 1.259 12.965 3.793 18.836 2.524 5.87 5.993 11.009 10.396 15.412 4.403 4.402 9.541 7.869 15.414 10.396 5.872 2.53 12.145 3.793 18.832 3.793Zm-.12-138.221c12.375 0 24.02 2.364 34.931 7.095 10.916 4.732 20.447 11.13 28.588 19.203 8.142 8.073 14.574 17.577 19.297 28.502 4.729 10.929 7.088 22.591 7.088 34.984s-2.359 24.056-7.088 34.984c-4.723 10.927-11.155 20.425-19.297 28.498-8.141 8.073-17.672 14.476-28.588 19.205-10.911 4.732-22.556 7.095-34.931 7.095-12.38 0-24.025-2.363-34.936-7.095-10.915-4.729-20.401-11.132-28.468-19.205-8.057-8.073-14.449-17.571-19.177-28.498-4.723-10.928-7.082-22.591-7.082-34.984s2.359-24.055 7.082-34.984c4.728-10.925 11.12-20.429 19.177-28.502 8.067-8.073 17.553-14.471 28.468-19.203 10.911-4.731 22.556-7.095 34.936-7.095m192.157 179.566c-11.58 0-22.871-2.16-33.881-6.484-11.006-4.321-20.917-10.886-29.723-19.695-8.487-8.641-14.969-18.385-19.452-29.232-4.483-10.846-6.727-22.302-6.727-34.371 0-12.236 2.244-23.77 6.727-34.617 4.483-10.845 10.965-20.507 19.452-28.99 8.806-8.807 18.752-15.414 29.843-19.816 11.09-4.403 22.386-6.607 33.886-6.607 11.495 0 22.751 2.204 33.756 6.607 11.016 4.402 20.922 11.009 29.728 19.816l-29.113 29.111c-4.733-4.731-10.116-8.276-16.148-10.642-6.033-2.362-12.15-3.548-18.348-3.548-6.197 0-12.275 1.186-18.223 3.548-5.957 2.366-11.295 5.911-16.023 10.642-4.568 4.733-8.077 10.029-10.521 15.902-2.449 5.872-3.668 12.071-3.668 18.594 0 6.522 1.219 12.682 3.668 18.469 2.444 5.791 5.953 11.05 10.521 15.779 4.728 4.732 10.066 8.279 16.023 10.642 5.948 2.366 12.026 3.547 18.223 3.547 6.198 0 12.315-1.181 18.348-3.547 6.032-2.363 11.415-5.91 16.148-10.642l29.113 29.355c-8.806 8.809-18.682 15.374-29.603 19.695-10.93 4.324-22.261 6.484-34.006 6.484m-738.2-25.301c0 2.574-1.64 4.128-4.914 4.666-1.786 0-4.526-2.736-8.216-8.213l-48.974-62.541v66.274c0 2.325-1.493 3.735-4.48 4.233h-.192c-2.405 0-3.898-1.554-4.479-4.667v-78.97c.375-3.442 1.703-5.163 3.981-5.163h.937c1.994 0 3.71 1.555 5.164 4.666 2.326 2.614 19.354 24.418 51.089 65.403.332 0 .498.229.498.683l.191.25h.248v-66.77c.537-2.821 1.949-4.232 4.233-4.232h.681c2.325 0 3.735 1.471 4.233 4.418v79.963Zm-90.768-25.452c0 9.334-4.48 17.489-13.442 24.457-5.642 3.776-11.368 5.661-17.176 5.661h-1.617c-9.75 0-18.233-4.789-25.452-14.373-3.274-5.144-4.914-11.491-4.914-19.043v-50.592c.371-3.443 1.696-5.164 3.98-5.164h.934c2.821.581 4.232 1.827 4.232 3.735v50.155c0 10.786 3.069 18.006 9.209 21.657 3.862 2.985 8.171 4.479 12.945 4.479 9.165 0 16.077-4.709 20.723-14.127a29.727 29.727 0 0 0 1.432-9.209v-52.272c.497-2.946 1.907-4.418 4.23-4.418h.684c2.82.54 4.232 1.95 4.232 4.232v54.822Zm-82.925-50.155h-43.25v31.862h28.315l3.361-.248c2.115 0 3.524 1.575 4.231 4.728 0 2.073-1.267 3.651-3.795 4.731l-4.731-.25h-27.381v33.541l.25 1.429c-.705 2.989-2.197 4.48-4.481 4.48h-.498c-2.987-.538-4.48-2.032-4.48-4.48v-80.524c.458-2.987 1.952-4.481 4.48-4.481v-.248l1.182.248h46.299l.931-.248c2.698 0 4.276 1.722 4.731 5.166-.621 2.864-2.345 4.294-5.164 4.294Zm173.925-131.16c-75.914-36.475-238.465 33.394-264.744 110.078-70.235 206.746 244.08 288.475 305.22 111.82 26.378-64.704 12.401-197.406-40.476-221.898m65.454 311.006c-21.023 26.865-59.103-4.047-34.984-26.743 24.119-22.695 57.495 1.564 34.984 26.743" style="fill:#21529b;fill-rule:nonzero"/><path d="M418.763 440.719c-21.023 26.865-59.103-4.047-34.984-26.743 24.119-22.695 57.495 1.564 34.984 26.743" style="fill:#d33e32;fill-rule:nonzero"/></svg>
