<svg xmlns="http://www.w3.org/2000/svg" width="287.187" height="88.413"><path d="M988.918 538.082h85.172l21.05-359.766h-82.73l-8.81 146.844-49.928-146.844h-82.715l-52.871 152.719-9.785-152.719H725.09l23.008 359.766h85.164l78.808-225.156 76.848 225.156M1275.26 261.527c13.38 0 25.95 2.528 37.7 7.59 11.74 5.055 22.02 11.992 30.83 20.801 8.81 8.809 15.74 19.09 20.8 30.836 5.06 11.746 7.59 24.305 7.59 37.687 0 13.379-2.53 25.946-7.59 37.692-5.06 11.75-11.99 22.027-20.8 30.84-8.81 8.808-19.09 15.738-30.83 20.8-11.75 5.055-24.32 7.586-37.7 7.586-13.38 0-25.93-2.531-37.68-7.586-11.75-5.062-22.03-11.992-30.84-20.8-8.81-8.813-15.75-19.09-20.8-30.84-5.07-11.746-7.59-24.313-7.59-37.692 0-13.382 2.52-25.941 7.59-37.687 5.05-11.746 11.99-22.027 20.8-30.836 8.81-8.809 19.09-15.746 30.84-20.801 11.75-5.062 24.3-7.59 37.68-7.59zm-.24 276.555c24.77 0 48.06-4.73 69.89-14.195 21.84-9.469 40.91-22.27 57.2-38.422 16.29-16.152 29.16-35.168 38.61-57.027 9.46-21.868 14.18-45.2 14.18-69.997 0-24.796-4.72-48.132-14.18-69.996-9.45-21.863-22.32-40.867-38.61-57.019-16.29-16.153-35.36-28.965-57.2-38.426-21.83-9.469-45.12-14.195-69.89-14.195-24.77 0-48.07 4.726-69.9 14.195-21.84 9.461-40.82 22.273-56.96 38.426-16.12 16.152-28.91 35.156-38.36 57.019-9.46 21.864-14.17 45.2-14.17 69.996 0 24.797 4.71 48.129 14.17 69.997 9.45 21.859 22.24 40.875 38.36 57.027 16.14 16.152 35.12 28.953 56.96 38.422 21.83 9.465 45.13 14.195 69.9 14.195M1642.36 261.527c13.38 0 25.95 2.528 37.7 7.59 11.74 5.055 22.02 11.992 30.83 20.801 8.81 8.809 15.74 19.09 20.8 30.836 5.06 11.746 7.59 24.305 7.59 37.687 0 13.379-2.53 25.946-7.59 37.692-5.06 11.75-11.99 22.027-20.8 30.84-8.81 8.808-19.09 15.738-30.83 20.8-11.75 5.055-24.32 7.586-37.7 7.586-13.38 0-25.93-2.531-37.68-7.586-11.75-5.062-22.03-11.992-30.84-20.8-8.81-8.813-15.75-19.09-20.8-30.84-5.07-11.746-7.59-24.313-7.59-37.692 0-13.382 2.52-25.941 7.59-37.687 5.05-11.746 11.99-22.027 20.8-30.836 8.81-8.809 19.09-15.746 30.84-20.801 11.75-5.062 24.3-7.59 37.68-7.59zm-.24 276.555c24.76 0 48.06-4.73 69.89-14.195 21.84-9.469 40.91-22.27 57.2-38.422 16.29-16.152 29.16-35.168 38.61-57.027 9.46-21.868 14.18-45.2 14.18-69.997 0-24.796-4.72-48.132-14.18-69.996-9.45-21.863-22.32-40.867-38.61-57.019-16.29-16.153-35.36-28.965-57.2-38.426-21.83-9.469-45.13-14.195-69.89-14.195-24.77 0-48.07 4.726-69.9 14.195-21.84 9.461-40.82 22.273-56.96 38.426-16.12 16.152-28.91 35.156-38.37 57.019-9.45 21.864-14.17 45.2-14.17 69.996 0 24.797 4.72 48.129 14.17 69.997 9.46 21.859 22.25 40.875 38.37 57.027 16.14 16.152 35.12 28.953 56.96 38.422 21.83 9.465 45.13 14.195 69.9 14.195M2026.59 178.805c-23.17 0-45.76 4.32-67.79 12.972-22.02 8.645-41.85 21.782-59.47 39.407-16.98 17.289-29.95 36.785-38.92 58.488-8.97 21.699-13.46 44.621-13.46 68.769 0 24.481 4.49 47.559 13.46 69.262 8.97 21.699 21.94 41.031 38.92 58.004 17.62 17.621 37.52 30.84 59.71 39.648 22.19 8.809 44.79 13.219 67.8 13.219 23 0 45.52-4.41 67.54-13.219 22.04-8.808 41.86-22.027 59.48-39.648l-58.25-58.246c-9.47 9.465-20.24 16.559-32.31 21.293-12.07 4.726-24.31 7.098-36.71 7.098-12.4 0-24.56-2.372-36.46-7.098-11.92-4.734-22.6-11.828-32.06-21.293-9.14-9.469-16.16-20.066-21.05-31.816-4.9-11.75-7.34-24.153-7.34-37.204 0-13.05 2.44-25.375 7.34-36.953 4.89-11.586 11.91-22.109 21.05-31.57 9.46-9.469 20.14-16.566 32.06-21.293 11.9-4.734 24.06-7.098 36.46-7.098 12.4 0 24.64 2.364 36.71 7.098 12.07 4.727 22.84 11.824 32.31 21.293l58.25-58.734c-17.62-17.625-37.38-30.762-59.23-39.407-21.87-8.652-44.54-12.972-68.04-12.972M549.59 229.426c0-5.149-3.281-8.258-9.832-9.336-3.574 0-9.055 5.476-16.438 16.433l-97.988 125.133V229.055c0-4.653-2.988-7.473-8.965-8.469h-.383c-4.812 0-7.8 3.109-8.961 9.336v158.004c.75 6.887 3.407 10.332 7.965 10.332h1.875c3.989 0 7.422-3.113 10.332-9.336 4.653-5.231 38.723-48.856 102.219-130.859.664 0 .996-.458.996-1.368l.383-.5h.496v133.594c1.074 5.645 3.899 8.469 8.469 8.469h1.363c4.652 0 7.473-2.945 8.469-8.84zm-181.61 50.926c0-18.676-8.964-34.993-26.894-48.934-11.289-7.555-22.746-11.328-34.367-11.328h-3.235c-19.507 0-36.48 9.582-50.925 28.758-6.551 10.293-9.832 22.992-9.832 38.101v101.227c.742 6.887 3.394 10.332 7.964 10.332h1.868c5.644-1.164 8.468-3.656 8.468-7.473V290.684c0-21.582 6.141-36.028 18.426-43.332 7.727-5.973 16.348-8.961 25.899-8.961 18.339 0 32.168 9.422 41.464 28.265 1.907 5.895 2.864 12.032 2.864 18.426v104.586c.996 5.895 3.816 8.84 8.465 8.84h1.367c5.644-1.082 8.468-3.903 8.468-8.469zM202.063 380.703h-86.536v-63.75h56.653l6.726.496c4.231 0 7.051-3.152 8.465-9.461 0-4.148-2.535-7.304-7.594-9.465l-9.464.5h-54.786v-67.109l.5-2.859c-1.41-5.981-4.394-8.965-8.964-8.965h-.997c-5.976 1.078-8.964 4.066-8.964 8.965v161.113c.917 5.977 3.906 8.965 8.964 8.965v.496l2.364-.496h92.636l1.864.496c5.398 0 8.554-3.445 9.465-10.336-1.243-5.73-4.692-8.59-10.332-8.59zm347.992 262.426C398.164 716.109 72.93 576.313 20.352 422.883-120.176 9.223 508.71-154.301 631.039 199.152c52.777 129.461 24.813 394.973-80.984 443.977M681.016 20.863c-42.063-53.75-118.254 8.098-69.996 53.508 48.257 45.41 115.035-3.129 69.996-53.508" style="fill:#fff;fill-opacity:1;fill-rule:nonzero;stroke:none" transform="matrix(.13333 0 0 -.13333 0 88.413)"/></svg>
